<svg width="32" height="32" viewBox="0 0 32 32" fill="none" xmlns="http://www.w3.org/2000/svg">
  <path d="M16 2L4 7v9c0 6.627 5.148 11.927 12 13 6.852-1.073 12-6.373 12-13V7L16 2z" fill="url(#shield_grad)" opacity="0.15"/>
  <path d="M16 2L4 7v9c0 6.627 5.148 11.927 12 13 6.852-1.073 12-6.373 12-13V7L16 2z" stroke="url(#shield_stroke)" stroke-width="1.5" stroke-linejoin="round"/>
  <path d="M11 16l3.5 3.5L21 12" stroke="url(#check_grad)" stroke-width="2" stroke-linecap="round" stroke-linejoin="round"/>
  <defs>
    <linearGradient id="shield_grad" x1="4" y1="2" x2="28" y2="29" gradientUnits="userSpaceOnUse">
      <stop offset="0%" stop-color="#00d4ff"/>
      <stop offset="100%" stop-color="#0088cc"/>
    </linearGradient>
    <linearGradient id="shield_stroke" x1="4" y1="2" x2="28" y2="29" gradientUnits="userSpaceOnUse">
      <stop offset="0%" stop-color="#00d4ff"/>
      <stop offset="100%" stop-color="#0099dd"/>
    </linearGradient>
    <linearGradient id="check_grad" x1="11" y1="12" x2="21" y2="20" gradientUnits="userSpaceOnUse">
      <stop offset="0%" stop-color="#00d4ff"/>
      <stop offset="100%" stop-color="#ffffff"/>
    </linearGradient>
  </defs>
</svg>
